#!OML:ASF X:\für Bonn\!DataBase\2005_08_10_Bjorn_Final\c3d\bjorn.ASF
:FULLY-SPECIFIED
:DEGREES
187
root -7.92955 18.6641 20.8887 -205.114 -259.125 -210.779
lowerback -3.49783 -1.42683 1.48464
upperback 8.06573 -1.79497 -1.00587
thorax 10.4594 -0.630661 -2.1162
lowerneck -1.49725 6.39246 3.41043
upperneck 0.308563 8.499 -3.97197
head 0.679826 4.23302 -1.69487
rclavicle 3.81667e-014 -1.19271e-014
rhumerus -59.8072 1.25005 -92.5648
rradius 74.1548
rwrist 3.28703
rhand -26.6687 29.4273
rfingers 7.12502
rthumb -0.100083 -0.552373
lclavicle 3.81667e-014 -1.19271e-014
lhumerus -25.2123 -20.2388 87.9339
lradius 93.4848
lwrist 1.17242
lhand -45.585 -24.4741
lfingers 7.12502
lthumb -18.3465 4.6807
rfemur -39.0681 -7.86742 11.9884
rtibia 47.2335
rfoot -6.87835 12.2836
rtoes -29.9603
lfemur 11.2555 -1.56369 -26.224
ltibia 24.9756
lfoot 0.046055 -10.9598
ltoes 0.71668
188
root -7.62018 18.7534 20.9505 -209.121 -259.852 -214.95
lowerback -3.81123 -1.77837 1.75516
upperback 8.03054 -2.32365 -0.784813
thorax 10.5836 -0.876027 -2.10662
lowerneck -1.33477 6.63989 3.49222
upperneck 0.337697 8.83695 -4.2964
head 0.695622 4.40174 -1.80975
rclavicle -7.95139e-016 5.56597e-015
rhumerus -60.3034 0.859945 -92.0695
rradius 74.3613
rwrist 3.07418
rhand -26.6026 29.4517
rfingers 7.12502
rthumb -0.0362691 -0.52809
lclavicle -7.95139e-016 5.56597e-015
lhumerus -25.0474 -21.4607 87.7711
lradius 93.7884
lwrist 1.46909
lhand -45.7917 -24.7575
lfingers 7.12502
lthumb -18.5454 4.37851
rfemur -38.9095 -7.95099 12.4599
rtibia 44.5603
rfoot -4.90561 12.5848
rtoes -30.897
lfemur 12.044 -1.68492 -25.4177
ltibia 24.3256
lfoot 3.25807 -10.9889
ltoes 0.498891
189
root -7.31136 18.8204 21.0127 -213.673 -260.543 -219.731
lowerback -4.16656 -2.12387 2.04476
upperback 7.93437 -2.85137 -0.564844
thorax 10.6635 -1.12093 -2.11241
lowerneck -1.14731 6.87022 3.51495
upperneck 0.420429 9.15488 -4.56329
head 0.718552 4.5608 -1.897
rclavicle -1.78906e-014 0
rhumerus -60.8412 0.429543 -91.5889
rradius 74.6386
rwrist 2.88393
rhand -26.3537 29.2641
rfingers 7.12502
rthumb 0.204175 -0.715519
lclavicle -1.78906e-014 0
lhumerus -25.0409 -22.5709 87.6906
lradius 94.0628
lwrist 1.51277
lhand -46.0452 -25.1485
lfingers 7.12502
lthumb -18.7891 3.96403
rfemur -38.8205 -7.90574 12.8121
rtibia 42.0626
rfoot -3.1192 12.6626
rtoes -32.1036
lfemur 12.5823 -1.95774 -24.6983
ltibia 24.0388
lfoot 6.33208 -10.6281
ltoes 0.968151
190
root -6.99854 18.8942 21.0708 -218.833 -261.187 -225.178
lowerback -4.52436 -2.46586 2.30688
upperback 7.76166 -3.37766 -0.322749
thorax 10.6607 -1.37153 -2.08037
lowerneck -0.861994 7.09532 3.51505
upperneck 0.474476 9.46873 -4.85572
head 0.716991 4.71924 -1.99338
rclavicle -3.97569e-015 3.18055e-015
rhumerus -61.4888 0.187253 -91.1216
rradius 74.9065
rwrist 2.77848
rhand -26.323 29.2097
rfingers 7.12502
rthumb 0.233815 -0.769894
lclavicle -3.97569e-015 3.18055e-015
lhumerus -25.2323 -23.5062 87.76
lradius 94.2811
lwrist 1.13099
lhand -46.2961 -25.5703
lfingers 7.12502
lthumb -19.0304 3.51867
rfemur -38.6536 -7.70392 13.02
rtibia 39.6684
rfoot -1.64319 12.5421
rtoes -33.2309
lfemur 12.8394 -2.44029 -24.1074
ltibia 24.1493
lfoot 8.92725 -9.87753
ltoes 1.42423
191
root -6.68705 18.9538 21.1274 -224.604 -261.753 -231.151
lowerback -4.78271 -2.78733 2.56803
upperback 7.59537 -3.8703 -0.10656
thorax 10.605 -1.60513 -2.0683
lowerneck -0.624619 7.30503 3.54609
upperneck 0.632235 9.76463 -5.15377
head 0.758489 4.86775 -2.09371
rclavicle 7.95139e-015 -1.59028e-014
rhumerus -62.1062 0.0218343 -90.7332
rradius 75.1609
rwrist 2.79228
rhand -26.5342 29.2542
rfingers 7.12502
rthumb 0.0298154 -0.725502
lclavicle 7.95139e-015 -1.59028e-014
lhumerus -25.5234 -24.3876 87.8863
lradius 94.4336
lwrist 0.6687
lhand -46.4983 -26.1299
lfingers 7.12502
lthumb -19.2249 2.93987
rfemur -38.3505 -7.38802 13.0843
rtibia 37.4562
rfoot -0.339949 12.4867
rtoes -33.7009
lfemur 13.0001 -3.18208 -23.7207
ltibia 24.7211
lfoot 10.9352 -8.63402
ltoes 1.52693
192
root -6.37691 18.9985 21.1841 -231.121 -262.221 -237.758
lowerback -4.96914 -3.09079 2.79311
upperback 7.49576 -4.33173 0.120817
thorax 10.5856 -1.82408 -2.01939
lowerneck -0.457676 7.49951 3.52014
upperneck 0.752733 10.0387 -5.43992
head 0.7965 5.00484 -2.1792
rclavicle 3.65764e-014 -7.15625e-015
rhumerus -62.578 -0.171774 -90.3003
rradius 75.3956
rwrist 3.02969
rhand -26.888 29.2798
rfingers 7.12502
rthumb -0.311897 -0.699704
lclavicle 3.65764e-014 -7.15625e-015
lhumerus -25.7882 -25.1999 88.076
lradius 94.6165
lwrist 0.16976
lhand -46.5559 -26.356
lfingers 7.12502
lthumb -19.2803 2.70824
rfemur -37.8331 -6.84524 12.9776
rtibia 35.3788
rfoot 0.924808 12.4015
rtoes -31.9946
lfemur 13.1229 -3.99797 -23.4234
ltibia 25.6491
lfoot 12.2565 -7.24958
ltoes 1.58735
193
root -6.06686 19.0322 21.2402 -238.552 -262.576 -245.134
lowerback -5.00508 -3.38862 2.99003
upperback 7.43256 -4.77623 0.365228
thorax 10.5214 -2.03779 -1.92631
lowerneck -0.250395 7.67382 3.46523
upperneck 0.834693 10.2865 -5.73961
head 0.81424 5.12984 -2.26755
rclavicle -3.65764e-014 -9.54166e-015
rhumerus -62.9559 -0.417446 -89.8194
rradius 75.6492
rwrist 3.34757
rhand -27.2216 29.2597
rfingers 7.12502
rthumb -0.634084 -0.719134
lclavicle -3.65764e-014 -9.54166e-015
lhumerus -26.0338 -25.9067 88.3822
lradius 94.931
lwrist -0.217541
lhand -46.3474 -26.1601
lfingers 7.12502
lthumb -19.0798 2.92408
rfemur -37.1261 -6.20391 12.7996
rtibia 33.5416
rfoot 1.93921 12.4047
rtoes -29.935
lfemur 13.1908 -4.70174 -23.0995
ltibia 26.9971
lfoot 13.0178 -5.84357
ltoes 2.26118
194
root -5.75311 19.0623 21.2932 -246.822 -262.789 -253.274
lowerback -4.9935 -3.67666 3.14379
upperback 7.40452 -5.20399 0.664182
thorax 10.4793 -2.2475 -1.74678
lowerneck -0.0303562 7.83218 3.29954
upperneck 0.851653 10.5115 -6.03536
head 0.802079 5.24437 -2.3387
rclavicle 1.33186e-014 -1.51076e-014
rhumerus -63.2276 -0.63196 -89.2431
rradius 75.9123
rwrist 3.73853
rhand -27.58 29.158
rfingers 7.12502
rthumb -0.980242 -0.819513
lclavicle 1.33186e-014 -1.51076e-014
lhumerus -26.2434 -26.4759 88.8574
lradius 95.3262
lwrist -0.576667
lhand -45.9223 -25.6883
lfingers 7.12502
lthumb -18.671 3.43567
rfemur -36.3246 -5.60619 12.6398
rtibia 32.0005
rfoot 2.63476 12.5157
rtoes -29.5726
lfemur 13.1177 -5.27306 -22.7051
ltibia 28.708
lfoot 13.2837 -4.15896
ltoes 1.58037
